<svg xmlns="http://www.w3.org/2000/svg" width="587.587" height="247.637" viewBox="0 0 587.587 247.637">
  <g id="Group_158" data-name="Group 158" transform="translate(-649.631 -616.096)">
    <g id="Group_156" data-name="Group 156" transform="translate(649.631 617.31)">
      <g id="Group_155" data-name="Group 155" transform="translate(0 21.37)">
        <path id="Polygon_4" data-name="Polygon 4" d="M74.446,8.04a5,5,0,0,1,8.777,0l70.409,128.984a5,5,0,0,1-4.389,7.4H8.426a5,5,0,0,1-4.389-7.4Z" transform="translate(115.312 223.839) rotate(-137)" fill="#e2e2e2"/>
        <rect id="Rectangle_56" data-name="Rectangle 56" width="158.332" height="30.474" rx="5" transform="translate(106.708) rotate(43)" fill="#f79090"/>
      </g>
      <circle id="Ellipse_24" data-name="Ellipse 24" cx="13" cy="13" r="13" transform="translate(137.369 7.69)" fill="#eff731"/>
      <ellipse id="Ellipse_25" data-name="Ellipse 25" cx="9" cy="9.5" rx="9" ry="9.5" transform="translate(163.369 42.69)" fill="#7154ed"/>
      <ellipse id="Ellipse_26" data-name="Ellipse 26" cx="12.5" cy="13" rx="12.5" ry="13" transform="translate(195.369 7.69)" fill="#f79090"/>
      <circle id="Ellipse_27" data-name="Ellipse 27" cx="10" cy="10" r="10" transform="translate(199.369 40.69)" fill="#74cec0"/>
      <circle id="Ellipse_28" data-name="Ellipse 28" cx="8" cy="8" r="8" transform="translate(231.369 52.69)" fill="#e58dcd"/>
      <path id="Path_21" data-name="Path 21" d="M0,10.547Z" transform="translate(205.999 86.16)" fill="#ffc15f"/>
      <ellipse id="Ellipse_30" data-name="Ellipse 30" cx="12.5" cy="13" rx="12.5" ry="13" transform="translate(206.369 77.69)" fill="#ffc15f"/>
      <circle id="Ellipse_31" data-name="Ellipse 31" cx="8" cy="8" r="8" transform="translate(172.369 -0.31)" fill="#eb5b66"/>
    </g>
    <g id="Group_157" data-name="Group 157" transform="translate(992.008 863.733) rotate(-90)">
      <g id="Group_155-2" data-name="Group 155" transform="translate(0 21.37)">
        <path id="Polygon_4-2" data-name="Polygon 4" d="M74.446,8.04a5,5,0,0,1,8.777,0l70.409,128.985a5,5,0,0,1-4.389,7.4H8.426a5,5,0,0,1-4.389-7.4Z" transform="translate(115.312 223.84) rotate(-137)" fill="#e2e2e2"/>
        <rect id="Rectangle_56-2" data-name="Rectangle 56" width="158.332" height="30.474" rx="5" transform="translate(106.707 0) rotate(43)" fill="#f79090"/>
      </g>
      <path id="Path_21-2" data-name="Path 21" d="M0,2.141Z" transform="translate(205.999 94.566)" fill="#ffc15f"/>
      <g id="Group_159" data-name="Group 159">
        <ellipse id="Ellipse_24-2" data-name="Ellipse 24" cx="12.76" cy="12.76" rx="12.76" ry="12.76" transform="translate(137.498 8.059)" fill="#eff731"/>
        <ellipse id="Ellipse_25-2" data-name="Ellipse 25" cx="9.402" cy="9.402" rx="9.402" ry="9.402" transform="translate(163.018 42.981)" fill="#7154ed"/>
        <ellipse id="Ellipse_26-2" data-name="Ellipse 26" cx="12.76" cy="12.76" rx="12.76" ry="12.76" transform="translate(195.254 8.059)" fill="#f79090"/>
        <ellipse id="Ellipse_27-2" data-name="Ellipse 27" cx="10.074" cy="10.074" rx="10.074" ry="10.074" transform="translate(199.283 40.295)" fill="#74cec0"/>
        <ellipse id="Ellipse_28-2" data-name="Ellipse 28" cx="8.059" cy="8.059" rx="8.059" ry="8.059" transform="translate(231.519 52.383)" fill="#e58dcd"/>
        <ellipse id="Ellipse_30-2" data-name="Ellipse 30" cx="12.76" cy="12.76" rx="12.76" ry="12.76" transform="translate(205.999 77.903)" fill="#ffc15f"/>
        <ellipse id="Ellipse_31-2" data-name="Ellipse 31" cx="8.059" cy="8.059" rx="8.059" ry="8.059" transform="translate(172.42)" fill="#eb5b66"/>
      </g>
      <g id="Group_160" data-name="Group 160" transform="translate(0 -0.001)">
        <ellipse id="Ellipse_24-3" data-name="Ellipse 24" cx="12.76" cy="12.76" rx="12.76" ry="12.76" transform="translate(137.498 8.059)" fill="#eff731"/>
        <ellipse id="Ellipse_25-3" data-name="Ellipse 25" cx="9.402" cy="9.402" rx="9.402" ry="9.402" transform="translate(163.018 42.981)" fill="#7154ed"/>
        <ellipse id="Ellipse_26-3" data-name="Ellipse 26" cx="12.76" cy="12.76" rx="12.76" ry="12.76" transform="translate(195.254 8.059)" fill="#f79090"/>
        <ellipse id="Ellipse_27-3" data-name="Ellipse 27" cx="10.074" cy="10.074" rx="10.074" ry="10.074" transform="translate(199.283 40.295)" fill="#74cec0"/>
        <ellipse id="Ellipse_28-3" data-name="Ellipse 28" cx="8.059" cy="8.059" rx="8.059" ry="8.059" transform="translate(231.519 52.383)" fill="#e58dcd"/>
        <ellipse id="Ellipse_30-3" data-name="Ellipse 30" cx="12.76" cy="12.76" rx="12.76" ry="12.76" transform="translate(205.999 77.903)" fill="#ffc15f"/>
        <ellipse id="Ellipse_31-3" data-name="Ellipse 31" cx="8.059" cy="8.059" rx="8.059" ry="8.059" transform="translate(172.42)" fill="#eb5b66"/>
      </g>
    </g>
  </g>
</svg>
