<svg xmlns="http://www.w3.org/2000/svg" width="107" height="92.292" viewBox="0 0 107 92.292">
  <g id="Group_61" data-name="Group 61" transform="translate(-909 -447.708)">
    <text id="_" data-name=")" transform="translate(987 540) rotate(-90)" fill="#f79090" font-size="95" font-family="Questrial-Regular, Questrial"><tspan x="0" y="0">)</tspan></text>
    <g id="Group_46" data-name="Group 46" transform="translate(-9 45)">
      <path id="Path_9" data-name="Path 9" d="M11.646,0A11.646,11.646,0,1,1,0,11.646,11.646,11.646,0,0,1,11.646,0Z" transform="translate(1001.708 402.708)" fill="#fff"/>
      <path id="Path_12" data-name="Path 12" d="M3.683,0A3.683,3.683,0,1,1,0,3.683,3.683,3.683,0,0,1,3.683,0Z" transform="translate(1009.708 428.708)" fill="#fff"/>
    </g>
    <g id="Group_62" data-name="Group 62" transform="translate(-73 45)">
      <circle id="Ellipse_10" data-name="Ellipse 10" cx="23.5" cy="23.5" r="23.5" transform="translate(982 403)" fill="#1f1f1f"/>
      <path id="Path_9-2" data-name="Path 9" d="M9.286,0A9.286,9.286,0,1,1,0,9.286,9.286,9.286,0,0,1,9.286,0Z" transform="translate(1005.708 404.708)" fill="#fff"/>
      <path id="Path_12-2" data-name="Path 12" d="M3.683,0A3.683,3.683,0,1,1,0,3.683,3.683,3.683,0,0,1,3.683,0Z" transform="translate(990.708 426.708)" fill="#fff"/>
    </g>
    <g id="Group_63" data-name="Group 63" transform="translate(-13 45)">
      <circle id="Ellipse_10-2" data-name="Ellipse 10" cx="23.5" cy="23.5" r="23.5" transform="translate(982 403)" fill="#1f1f1f"/>
      <path id="Path_9-3" data-name="Path 9" d="M9.286,0A9.286,9.286,0,1,1,0,9.286,9.286,9.286,0,0,1,9.286,0Z" transform="translate(1005.708 404.708)" fill="#fff"/>
      <path id="Path_12-3" data-name="Path 12" d="M3.683,0A3.683,3.683,0,1,1,0,3.683,3.683,3.683,0,0,1,3.683,0Z" transform="translate(990.708 426.708)" fill="#fff"/>
    </g>
  </g>
</svg>
